<svg width="18" height="13" viewBox="0 0 18 13" fill="none" xmlns="http://www.w3.org/2000/svg">
<g id="discord">
<path id="Shape" fill-rule="evenodd" clip-rule="evenodd" d="M14.4663 1.09794C14.4616 1.08875 14.4537 1.08155 14.4441 1.07763C13.3379 0.570065 12.1705 0.208134 10.9711 0.000890772C10.9487 -0.00326414 10.9263 0.00738062 10.9153 0.027297C10.7563 0.315818 10.612 0.612177 10.4829 0.915243C9.19008 0.71899 7.87502 0.71899 6.58217 0.915243C6.45223 0.611408 6.30561 0.314975 6.14299 0.027297C6.13157 0.00785708 6.10943 -0.00261809 6.08716 0.000890772C4.88767 0.207699 3.72018 0.569658 2.61407 1.07766C2.6046 1.08167 2.59661 1.08852 2.5912 1.09727C0.379201 4.40061 -0.22675 7.62272 0.0705094 10.8049C0.0721989 10.8207 0.0802094 10.8351 0.092708 10.8448C1.38074 11.7985 2.82141 12.5265 4.35325 12.9976C4.37535 13.0043 4.39923 12.9964 4.41312 12.978C4.74213 12.5304 5.03365 12.0563 5.28473 11.5607C5.29171 11.547 5.29247 11.5309 5.28681 11.5165C5.28116 11.5022 5.26964 11.4909 5.25516 11.4856C4.79545 11.3097 4.35039 11.0977 3.92417 10.8515C3.90844 10.8423 3.89836 10.8258 3.89728 10.8076C3.89621 10.7894 3.90428 10.7718 3.9188 10.7608C4.00823 10.6938 4.09772 10.6241 4.18312 10.5537C4.1986 10.541 4.21996 10.5381 4.23826 10.5463C7.03062 11.8206 10.0537 11.8206 12.813 10.5463C12.8314 10.5375 12.8531 10.5402 12.8689 10.553C12.9543 10.6234 13.0438 10.6938 13.1339 10.7608C13.1485 10.7717 13.1567 10.7892 13.1557 10.8074C13.1548 10.8256 13.1448 10.8422 13.1292 10.8515C12.7039 11.0998 12.2584 11.3117 11.7975 11.485C11.783 11.4905 11.7716 11.5019 11.7661 11.5164C11.7605 11.5308 11.7614 11.547 11.7685 11.5607C12.0238 12.0536 12.3149 12.527 12.6394 12.9772C12.653 12.9962 12.6771 13.0044 12.6993 12.9976C14.2339 12.528 15.6771 11.8 16.9667 10.8448C16.9794 10.8356 16.9875 10.8213 16.9889 10.8056C17.3448 7.12663 16.3931 3.93092 14.4663 1.09794ZM5.70174 8.8673C4.86104 8.8673 4.16832 8.0958 4.16832 7.14831C4.16832 6.20082 4.8476 5.42926 5.70174 5.42926C6.56256 5.42926 7.24857 6.20752 7.23513 7.14825C7.23513 8.0958 6.55583 8.8673 5.70174 8.8673ZM9.83786 7.14831C9.83786 8.0958 10.5306 8.8673 11.3713 8.8673C12.2321 8.8673 12.9047 8.0958 12.9047 7.14825C12.9181 6.20752 12.2321 5.42926 11.3713 5.42926C10.5171 5.42926 9.83786 6.20082 9.83786 7.14831Z" fill="#7D8198"/>
</g>
</svg>
