<svg width="16" height="16" viewBox="0 0 16 16" fill="none" xmlns="http://www.w3.org/2000/svg">
<g id="instagram">
<path id="Rectangle" fill-rule="evenodd" clip-rule="evenodd" d="M5.33377 0.222168H10.6671C13.4899 0.222168 15.7782 2.51049 15.7782 5.33328V10.6666C15.7782 13.4894 13.4899 15.7777 10.6671 15.7777H5.33377C2.51098 15.7777 0.222656 13.4894 0.222656 10.6666V5.33328C0.222656 2.51049 2.51098 0.222168 5.33377 0.222168ZM10.6671 1.5555H5.33377C3.24736 1.5555 1.55599 3.24687 1.55599 5.33328V10.6666C1.55599 12.753 3.24736 14.4444 5.33377 14.4444H10.6671C12.7535 14.4444 14.4449 12.753 14.4449 10.6666V5.33328C14.4449 3.24687 12.7535 1.5555 10.6671 1.5555Z" fill="#7D8198"/>
<circle id="Oval" cx="11.9991" cy="3.99999" r="0.444444" fill="#7D8198"/>
<path id="Path" fill-rule="evenodd" clip-rule="evenodd" d="M5.54801 10.452C4.47694 9.38094 4.21349 7.74373 4.89449 6.39072C5.5755 5.03771 7.04742 4.27396 8.54576 4.49615C10.0757 4.72302 11.277 5.92431 11.5039 7.45426C11.7261 8.9526 10.9623 10.4245 9.6093 11.1055C8.25629 11.7865 6.61908 11.5231 5.54801 10.452ZM10.185 7.64984C10.0442 6.70088 9.29914 5.95578 8.35018 5.81506L8.18645 5.79704C7.31512 5.73424 6.48302 6.20033 6.08547 6.99017C5.66308 7.82938 5.82648 8.84487 6.49082 9.5092C7.15515 10.1735 8.17064 10.3369 9.00985 9.91455C9.84905 9.49215 10.3228 8.57919 10.185 7.64984Z" fill="#7D8198"/>
</g>
</svg>
