<svg width="126" height="20" viewBox="0 0 126 20" fill="none" xmlns="http://www.w3.org/2000/svg">
<g id="lexit logo">
<path id="Fill 1" fill-rule="evenodd" clip-rule="evenodd" d="M0 0.0366287V19.9642H0.0688889V19.9872H28.5103V15.7657H4.22135V0.0366287H0Z" fill="white"/>
<path id="Fill 2" fill-rule="evenodd" clip-rule="evenodd" d="M91.1318 19.9642H95.3532V0.0117874H91.1318V19.9642Z" fill="white"/>
<path id="Fill 3" fill-rule="evenodd" clip-rule="evenodd" d="M31.0723 15.7658L35.2905 19.9871H59.5137L55.0472 15.7658H31.0723Z" fill="white"/>
<path id="Fill 4" fill-rule="evenodd" clip-rule="evenodd" d="M31.0723 7.88287L35.2906 12.1042H59.5138L55.0472 7.88287H31.0723Z" fill="white"/>
<path id="Fill 5" fill-rule="evenodd" clip-rule="evenodd" d="M31.0723 1.90735e-05L35.2905 4.22137H59.5137L55.0472 1.90735e-05H31.0723Z" fill="white"/>
<path id="Fill 6" fill-rule="evenodd" clip-rule="evenodd" d="M97.3525 1.90735e-05L101.571 4.22137H109.431V19.9642H113.653V4.22137H125.794L121.328 1.90735e-05H97.3525Z" fill="white"/>
<path id="Fill 7" fill-rule="evenodd" clip-rule="evenodd" d="M121.337 1.90735e-05L125.803 4.22137V1.90735e-05H121.337Z" fill="#0379EB"/>
<path id="Fill 8" fill-rule="evenodd" clip-rule="evenodd" d="M24.0439 15.7658L28.5105 19.9871V15.7658H24.0439Z" fill="#0379EB"/>
<path id="Fill 9" fill-rule="evenodd" clip-rule="evenodd" d="M91.1543 1.90735e-05L95.3478 4.22137V1.90735e-05H91.1543Z" fill="#FF0085"/>
<path id="Fill 10" fill-rule="evenodd" clip-rule="evenodd" d="M0.0205078 0.0201054L4.21403 4.24146V0.0201054H0.0205078Z" fill="#FF0085"/>
<path id="Fill 11" fill-rule="evenodd" clip-rule="evenodd" d="M82.8009 0.0578461L75.0835 7.03427L67.1809 0.0578461H60.9453L71.8972 9.99166L60.9453 19.9377H67.2427L75.0352 12.8378L82.8626 19.9377H89.16L78.1705 9.99775L89.0364 0.0578461H82.8009Z" fill="white"/>
</g>
</svg>
