<svg width="227px" height="119px" viewBox="0 0 227 119" version="1.1" xmlns="http://www.w3.org/2000/svg" xmlns:xlink="http://www.w3.org/1999/xlink">
                <defs></defs>
                <g id="Page-1" stroke="none" stroke-width="1" fill="none" fill-rule="evenodd">
                    <g id="logo">
                        <path d="M166.745,58.966 C166.816,61.125 166.816,63.213 166.672,65.23 C166.529,67.173 166.168,69.117 165.737,70.99 C165.233,72.933 164.512,74.733 163.649,76.46 C162.785,78.261 161.561,79.989 160.121,81.716 C157.168,85.101 153.569,87.764 149.321,89.636 C145.074,91.58 140.753,92.516 136.218,92.516 C131.682,92.516 127.363,91.58 123.403,89.852 C119.371,88.052 115.843,85.676 112.819,82.724 C109.868,79.701 107.492,76.173 105.692,72.141 C103.963,68.181 103.028,63.861 103.028,59.326 C103.028,54.718 103.963,50.326 105.692,46.294 C107.492,42.19 109.868,38.663 112.891,35.639 C115.914,32.615 119.443,30.167 123.619,28.439 C127.722,26.639 132.042,25.775 136.65,25.775 C142.337,25.775 147.521,27 151.985,29.447 C156.521,31.823 160.552,35.279 163.936,39.743 L158.752,44.566 C156.017,40.75 152.849,37.799 149.177,35.639 C145.578,33.551 141.402,32.471 136.578,32.471 C132.906,32.471 129.451,33.191 126.21,34.631 C123.042,36.071 120.235,38.015 117.931,40.463 C115.555,42.911 113.683,45.791 112.315,49.03 C110.947,52.27 110.227,55.726 110.227,59.398 C110.227,62.782 110.875,66.093 112.243,69.261 C113.539,72.357 115.339,75.166 117.787,77.613 C120.163,79.989 122.97,82.004 126.138,83.517 C129.306,85.029 132.618,85.82 136.074,85.82 C138.881,85.82 141.618,85.316 144.353,84.38 C147.089,83.373 149.538,82.004 151.769,80.205 C153.929,78.405 155.729,76.317 157.097,73.869 C158.393,71.421 159.04,68.685 159.04,65.662 L139.89,65.662 L139.89,58.966 L166.745,58.966 Z M39.887,23.184 L63.286,77.325 L86.829,23.184 L99.932,91.365 L92.516,91.365 L84.237,47.734 L84.092,47.734 L63.286,94.028 L42.622,47.734 L42.407,47.734 L34.127,91.365 L26.784,91.365 L39.887,23.184 Z M183.16,73.078 L179.343,82.148 L179.272,82.22 L175.384,91.365 L167.537,91.365 L197.271,23.832 L226.286,91.365 L218.294,91.365 L210.734,73.078 L210.663,73.078 L202.599,53.638 L197.127,40.607 L191.511,53.638 L183.232,73.078 L183.16,73.078 Z" id="Fill-3" fill="#CFC4BA"></path>
                        <polyline id="Fill-4" fill="#FA633B" points="7.848 118.218 31.391 0 23.976 0 0 118.218 7.848 118.218"></polyline>
                    </g>
                </g>
            </svg>