<svg width="19" height="16" viewBox="0 0 19 16" fill="none" xmlns="http://www.w3.org/2000/svg">
<g id="reddit">
<path id="Shape" fill-rule="evenodd" clip-rule="evenodd" d="M16.1295 6.09304C17.2703 6.09304 18.1985 7.02126 18.1985 8.16209C18.1985 8.87882 17.824 9.53926 17.2196 9.91599C17.2533 10.1167 17.2723 10.3203 17.2723 10.527C17.2723 13.5134 13.6522 15.9433 9.20204 15.9433C4.75185 15.9433 1.13171 13.5134 1.13171 10.527C1.13171 10.3142 1.15211 10.1045 1.18786 9.89806C0.599601 9.51842 0.236328 8.86773 0.236328 8.16209C0.236328 7.02122 1.16458 6.09304 2.30538 6.09304C2.80713 6.09304 3.28069 6.27224 3.65651 6.59748C5.03066 5.72348 6.86215 5.175 8.88087 5.12118L10.333 0.161621L13.9788 0.83893L13.9799 0.839367C14.1927 0.460712 14.5861 0.194057 15.051 0.170348C15.7711 0.133621 16.3866 0.689439 16.4233 1.40948C16.4601 2.12948 15.9042 2.74508 15.1842 2.7818C14.4641 2.81853 13.8486 2.26271 13.8119 1.54268C13.8111 1.52861 13.8123 1.51499 13.8136 1.50136C13.8145 1.49091 13.8154 1.48046 13.8155 1.4698L10.79 0.907694L9.55778 5.12235C11.5716 5.18177 13.3973 5.73344 14.7656 6.60904C15.1434 6.27664 15.622 6.09304 16.1295 6.09304ZM6.6384 8.29918C5.93567 8.29918 5.36658 8.86857 5.36658 9.57031C5.36658 10.2727 5.93567 10.8418 6.6384 10.8418C7.34047 10.8418 7.90956 10.2727 7.90956 9.57031C7.90956 8.86857 7.34047 8.29918 6.6384 8.29918ZM12.1993 13.0093C12.1614 13.0489 11.249 13.9771 9.18716 13.9771C7.11473 13.9771 6.28567 13.0361 6.25153 12.9961C6.13469 12.8597 6.15062 12.6542 6.28706 12.5378C6.4228 12.422 6.62626 12.4369 6.74342 12.5713C6.762 12.5916 7.45396 13.3272 9.1872 13.3272C10.9365 13.3272 11.7114 12.5776 11.7312 12.5584L11.7315 12.5581C11.8564 12.4308 12.0619 12.4278 12.1902 12.5527C12.3177 12.6772 12.3225 12.8803 12.1993 13.0093ZM10.6746 9.57031C10.6746 10.2727 11.2436 10.8418 11.9464 10.8418C12.6485 10.8418 13.2176 10.2727 13.2176 9.57031C13.2176 8.86857 12.6485 8.29918 11.9464 8.29918C11.2437 8.29918 10.6746 8.86857 10.6746 9.57031Z" fill="#7D8198"/>
</g>
</svg>
