<svg width="19" height="40" viewBox="0 0 19 40" fill="none" xmlns="http://www.w3.org/2000/svg">
<g id="scroll">
<g id="Group 3">
<mask id="mask0_0_725" style="mask-type:alpha" maskUnits="userSpaceOnUse" x="0" y="0" width="18" height="28">
<path id="Clip 2" fill-rule="evenodd" clip-rule="evenodd" d="M0 0.122314H17.4759V27.9258H0V0.122314Z" fill="white"/>
</mask>
<g mask="url(#mask0_0_725)">
<path id="Fill 1" fill-rule="evenodd" clip-rule="evenodd" d="M8.73798 1.34556C4.59437 1.34556 1.22324 4.71669 1.22324 8.8603V19.188C1.22324 23.3316 4.59437 26.7026 8.73798 26.7026C12.8817 26.7026 16.2527 23.3316 16.2527 19.188V8.8603C16.2527 4.71669 12.8817 1.34556 8.73798 1.34556ZM8.73798 27.9259C3.91988 27.9259 0 24.0061 0 19.188V8.8603C0 4.04219 3.91988 0.122314 8.73798 0.122314C13.5561 0.122314 17.476 4.04219 17.476 8.8603V19.188C17.476 24.0061 13.5561 27.9259 8.73798 27.9259Z" fill="white"/>
</g>
</g>
<path id="Fill 4" fill-rule="evenodd" clip-rule="evenodd" d="M8.49346 12.11C8.15572 12.11 7.88184 11.8361 7.88184 11.4984V6.7329C7.88184 6.39516 8.15572 6.12128 8.49346 6.12128C8.83119 6.12128 9.10508 6.39516 9.10508 6.7329V11.4984C9.10508 11.8361 8.83119 12.11 8.49346 12.11Z" fill="white"/>
<g id="Group 8">
<mask id="mask1_0_725" style="mask-type:alpha" maskUnits="userSpaceOnUse" x="0" y="30" width="18" height="10">
<path id="Clip 7" fill-rule="evenodd" clip-rule="evenodd" d="M0.0478516 30.5007H17.6797V39.9282H0.0478516V30.5007Z" fill="white"/>
</mask>
<g mask="url(#mask1_0_725)">
<path id="Fill 6" fill-rule="evenodd" clip-rule="evenodd" d="M8.86385 39.9282C8.70727 39.9282 8.55082 39.8685 8.43131 39.749L0.227026 31.5448C-0.0118732 31.3059 -0.0118732 30.9186 0.227026 30.6798C0.465925 30.4409 0.853081 30.4409 1.09198 30.6798L8.86385 38.4516L16.6356 30.6798C16.8745 30.4409 17.2616 30.4409 17.5005 30.6798C17.7394 30.9186 17.7394 31.3059 17.5005 31.5448L9.29638 39.749C9.17687 39.8685 9.02042 39.9282 8.86385 39.9282Z" fill="white"/>
</g>
</g>
</g>
</svg>
