<svg width="16" height="14" viewBox="0 0 16 14" fill="none" xmlns="http://www.w3.org/2000/svg">
<path id="twitter" d="M5.03125 13.5C6.54167 13.5 7.875 13.2188 9.03125 12.6562C10.1979 12.0833 11.1745 11.349 11.9609 10.4531C12.7474 9.55729 13.3438 8.55729 13.75 7.45312C14.1562 6.34896 14.3594 5.25521 14.3594 4.17188V3.73438C14.6719 3.50521 14.9688 3.2474 15.25 2.96094C15.5312 2.67448 15.7812 2.36979 16 2.04688C15.7083 2.17188 15.4036 2.27865 15.0859 2.36719C14.7682 2.45573 14.4427 2.51562 14.1094 2.54688C14.4531 2.34896 14.75 2.09375 15 1.78125C15.25 1.46875 15.4323 1.125 15.5469 0.75C15.2344 0.9375 14.9036 1.09896 14.5547 1.23438C14.2057 1.36979 13.8438 1.46875 13.4688 1.53125C13.1667 1.21875 12.8099 0.96875 12.3984 0.78125C11.987 0.59375 11.5469 0.5 11.0781 0.5C10.6198 0.5 10.1927 0.588542 9.79688 0.765625C9.40104 0.932292 9.05469 1.16406 8.75781 1.46094C8.46094 1.75781 8.22396 2.10417 8.04688 2.5C7.88021 2.90625 7.79688 3.33333 7.79688 3.78125C7.79688 3.90625 7.80469 4.03125 7.82031 4.15625C7.83594 4.28125 7.85417 4.40625 7.875 4.53125C7.19792 4.5 6.54167 4.39583 5.90625 4.21875C5.26042 4.04167 4.65104 3.80469 4.07812 3.50781C3.50521 3.21094 2.96875 2.85938 2.46875 2.45312C1.96875 2.04688 1.52083 1.59896 1.125 1.10938C0.979167 1.34896 0.867188 1.60677 0.789062 1.88281C0.710938 2.15885 0.671875 2.44792 0.671875 2.75C0.671875 3.32292 0.804688 3.84896 1.07031 4.32812C1.33594 4.80729 1.6875 5.19271 2.125 5.48438C1.86458 5.47396 1.60938 5.43229 1.35938 5.35938C1.10938 5.28646 0.875 5.19271 0.65625 5.07812V5.10938C0.65625 5.91146 0.90625 6.60938 1.40625 7.20312C1.90625 7.79688 2.53125 8.17188 3.28125 8.32812C3.14583 8.36979 3.00521 8.39844 2.85938 8.41406C2.71354 8.42969 2.56771 8.4375 2.42188 8.4375C2.30729 8.4375 2.20052 8.43229 2.10156 8.42188C2.0026 8.41146 1.90104 8.40104 1.79688 8.39062C2.00521 9.03646 2.38802 9.57292 2.94531 10C3.5026 10.4271 4.14062 10.651 4.85938 10.6719C4.29688 11.1094 3.66927 11.4505 2.97656 11.6953C2.28385 11.9401 1.55729 12.0625 0.796875 12.0625C0.661458 12.0625 0.528646 12.0599 0.398438 12.0547C0.268229 12.0495 0.135417 12.0417 0 12.0312C0.364583 12.2604 0.744792 12.4688 1.14062 12.6562C1.53646 12.8333 1.94531 12.9844 2.36719 13.1094C2.78906 13.2344 3.22396 13.3333 3.67188 13.4062C4.11979 13.4688 4.57292 13.5 5.03125 13.5Z" fill="#7D8198"/>
</svg>
